<svg width="151" height="40" viewBox="0 0 151 40" fill="none" xmlns="http://www.w3.org/2000/svg">
<path d="M10.956 19.536C13.068 19.536 14.74 19.745 15.972 20.163C17.204 20.581 18.084 21.296 18.612 22.308C19.14 23.298 19.404 24.662 19.404 26.4C19.404 28.314 19.107 29.766 18.513 30.756C17.919 31.746 17.006 32.417 15.774 32.769C14.564 33.099 13.035 33.264 11.187 33.264C9.493 33.264 7.975 33.242 6.633 33.198C5.291 33.176 3.916 33.11 2.508 33H2.376V10.23C3.696 10.142 5.005 10.087 6.303 10.065C7.623 10.021 8.899 9.999 10.131 9.999C11.495 9.999 12.826 10.021 14.124 10.065C15.422 10.109 16.709 10.164 17.985 10.23L17.589 13.992H7.392V19.536H10.956ZM10.956 22.836H7.392V29.535C8.448 29.535 9.636 29.535 10.956 29.535C11.88 29.535 12.584 29.447 13.068 29.271C13.552 29.095 13.882 28.776 14.058 28.314C14.256 27.83 14.355 27.126 14.355 26.202C14.355 25.344 14.267 24.673 14.091 24.189C13.915 23.683 13.585 23.331 13.101 23.133C12.617 22.935 11.902 22.836 10.956 22.836ZM25.8759 10.23L29.4399 22.341C29.5279 22.627 29.7479 22.77 30.0999 22.77H30.8919L34.8189 10.23H39.9669L34.4229 27.093C34.0269 28.347 33.5869 29.425 33.1029 30.327C32.6409 31.207 32.0579 31.911 31.3539 32.439C30.6719 32.945 29.7919 33.242 28.7139 33.33C28.2079 33.374 27.6029 33.374 26.8989 33.33C26.2169 33.308 25.5349 33.253 24.8529 33.165C24.1929 33.077 23.6319 32.978 23.1699 32.868L23.6979 29.37C25.0179 29.436 26.0299 29.458 26.7339 29.436C27.4379 29.414 27.9769 29.249 28.3509 28.941C28.7249 28.611 29.0549 28.061 29.3409 27.291L29.5719 26.499H28.3179C27.4819 26.499 26.8329 26.301 26.3709 25.905C25.9309 25.487 25.6009 24.915 25.3809 24.189L20.6949 10.23H25.8759ZM50.9224 9.834C51.9784 9.834 52.8914 9.867 53.6614 9.933C54.4314 9.977 55.1354 10.054 55.7734 10.164C56.4114 10.274 57.0714 10.417 57.7534 10.593L57.3574 14.322C56.6314 14.278 55.9604 14.245 55.3444 14.223C54.7284 14.201 54.0684 14.179 53.3644 14.157C52.6824 14.135 51.8684 14.124 50.9224 14.124C49.8004 14.124 48.9204 14.355 48.2824 14.817C47.6444 15.257 47.1934 16.016 46.9294 17.094C46.6874 18.172 46.5664 19.679 46.5664 21.615C46.5664 23.529 46.6874 25.036 46.9294 26.136C47.1934 27.214 47.6444 27.973 48.2824 28.413C48.9204 28.853 49.8004 29.073 50.9224 29.073C52.4404 29.073 53.7164 29.062 54.7504 29.04C55.7844 28.996 56.8074 28.908 57.8194 28.776L58.2484 32.472C57.1924 32.802 56.1144 33.033 55.0144 33.165C53.9144 33.319 52.5504 33.396 50.9224 33.396C48.5684 33.396 46.6764 33.022 45.2464 32.274C43.8384 31.504 42.8264 30.261 42.2104 28.545C41.5944 26.829 41.2864 24.519 41.2864 21.615C41.2864 18.711 41.5944 16.401 42.2104 14.685C42.8264 12.969 43.8384 11.737 45.2464 10.989C46.6764 10.219 48.5684 9.834 50.9224 9.834ZM78.4407 10.23V14.19H71.5767V33H66.5607V14.19H59.6967V10.23H78.4407Z" fill="#33447A"/>
<path d="M79 19C79 14.0294 83.0294 10 88 10H151V24C151 28.9706 146.971 33 142 33H79V19Z" fill="#4964BA"/>
<path d="M90.4503 14.89V19.925H95.1243V14.89H98.0123V28H95.1243V22.091H90.4503V28H87.5433V14.89H90.4503ZM106.967 14.89C107.208 14.89 107.417 14.9597 107.594 15.099C107.784 15.2383 107.911 15.422 107.974 15.65L111.774 28H108.81L107.841 24.523H103.319L102.369 28H99.4052L103.205 15.65C103.269 15.422 103.389 15.2383 103.566 15.099C103.756 14.9597 103.972 14.89 104.212 14.89H106.967ZM105.048 18.348L103.927 22.357H107.233L106.131 18.348C106.068 18.1453 106.011 17.9363 105.96 17.721C105.922 17.493 105.884 17.2777 105.846 17.075H105.333C105.295 17.2777 105.251 17.493 105.2 17.721C105.15 17.9363 105.099 18.1453 105.048 18.348ZM115.98 14.89V25.967H119.628V14.89H122.44V25.967H126.088V14.89H128.919V28H113.149V14.89H115.98ZM142.459 14.89V28H139.685V20.21C139.685 19.9187 139.697 19.6273 139.723 19.336C139.748 19.032 139.786 18.7343 139.837 18.443H139.723C139.52 19.051 139.273 19.621 138.982 20.153L134.479 28H131.648V14.89H134.422V22.528C134.422 22.8193 134.403 23.1233 134.365 23.44C134.339 23.7567 134.308 24.067 134.27 24.371H134.365C134.58 23.7757 134.846 23.1993 135.163 22.642L139.628 14.89H142.459Z" fill="white"/>
</svg>
